<?xml version="1.0" encoding="iso-8859-1"?>
<!-- Uploaded to: SVG Repo, www.svgrepo.com, Generator: SVG Repo Mixer Tools -->
<svg version="1.1" id="Layer_1" xmlns="http://www.w3.org/2000/svg" xmlns:xlink="http://www.w3.org/1999/xlink" 
	 viewBox="0 0 512 512" xml:space="preserve">
<path style="fill:#E5E5E5;" d="M256,0C114.616,0,0,114.616,0,256s114.616,256,256,256s256-114.616,256-256S397.384,0,256,0z"/>
<rect x="244" y="346.64" width="24" height="58.152"/>
<polygon points="180.928,419.728 188.928,395.728 323.072,395.728 331.072,419.728 "/>
<path d="M91.976,349.376C79.856,349.376,70,339.52,70,327.4V147.056c0-12.12,9.856-21.976,21.976-21.976h328.056
	c12.12,0,21.976,9.856,21.976,21.976v180.336c0,12.12-9.856,21.976-21.976,21.976L91.976,349.376L91.976,349.376z"/>
<path d="M420.024,131.08c8.808,0,15.976,7.168,15.976,15.976V327.4c0,8.808-7.168,15.976-15.976,15.976H91.976
	C83.168,343.376,76,336.208,76,327.4V147.056c0-8.808,7.168-15.976,15.976-15.976H420.024 M420.024,119.08H91.976
	C76.592,119.08,64,131.672,64,147.056V327.4c0,15.384,12.592,27.976,27.976,27.976h328.056c15.384,0,27.976-12.592,27.976-27.976
	V147.056C448,131.672,435.408,119.08,420.024,119.08L420.024,119.08z"/>
<polyline style="fill:#F00000;" points="242.784,192.328 254.064,160.928 326.856,194.744 "/>
<g>
	<circle style="fill:#FFFFFF;" cx="300.68" cy="308.744" r="22.672"/>
	<circle style="fill:#FFFFFF;" cx="232.32" cy="308.744" r="22.672"/>
	<polygon style="fill:#FFFFFF;" points="215.248,198.368 200.352,154.304 161.808,154.304 161.808,142.528 208.808,142.528 
		226.408,194.6 	"/>
</g>
<polygon style="fill:#999999;" points="186.688,188.48 350.192,188.48 319.024,275.92 213.912,275.92 "/>
</svg>